<svg version="1.1" xmlns="http://www.w3.org/2000/svg" xmlns:xlink="http://www.w3.org/1999/xlink" class="chart" viewBox="0 0 600 400" role="img"><style type="text/css"><![CDATA[
  text {fill: black}
  line {stroke: black}
]]></style>
<text x="280.0" y="20" text-anchor="middle" class="exc-title">Number of mails in mailbox</text><text x="280.0" y="35" text-anchor="middle" class="exc-subtitle">in each filter</text><g transform="translate(70,55)"><g transform="translate(0, 275)" fill="none" font-size="10" text-anchor="middle"><path class="exc-domain" stroke="#000" d="M0.5, 6V0.5H420.5V6"></path><g class="exc-tick" opacity="1" transform="translate(105.5,0)"><line y2="6"></line><text y="9" dy="0.71em" dx="0" text-anchor="middle">2</text></g><g class="exc-tick" opacity="1" transform="translate(315.5,0)"><line y2="6"></line><text y="9" dy="0.71em" dx="0" text-anchor="middle">3</text></g></g><g   fill="none" font-size="10" text-anchor="end"><path class="exc-domain" stroke="#000" d="M-6,275.5H0.5V0.5H-6"></path><g class="exc-tick" opacity="1" transform="translate(0, 275.5)"><line x2="-6"></line><text x="-9" dy="0.32em">0</text></g><g class="exc-tick" opacity="1" transform="translate(0, 248.0)"><line x2="-6"></line><text x="-9" dy="0.32em">1000</text></g><g class="exc-tick" opacity="1" transform="translate(0, 220.5)"><line x2="-6"></line><text x="-9" dy="0.32em">2000</text></g><g class="exc-tick" opacity="1" transform="translate(0, 193.0)"><line x2="-6"></line><text x="-9" dy="0.32em">3000</text></g><g class="exc-tick" opacity="1" transform="translate(0, 165.5)"><line x2="-6"></line><text x="-9" dy="0.32em">4000</text></g><g class="exc-tick" opacity="1" transform="translate(0, 138.0)"><line x2="-6"></line><text x="-9" dy="0.32em">5000</text></g><g class="exc-tick" opacity="1" transform="translate(0, 110.5)"><line x2="-6"></line><text x="-9" dy="0.32em">6000</text></g><g class="exc-tick" opacity="1" transform="translate(0, 83.0)"><line x2="-6"></line><text x="-9" dy="0.32em">7000</text></g><g class="exc-tick" opacity="1" transform="translate(0, 55.5)"><line x2="-6"></line><text x="-9" dy="0.32em">8000</text></g><g class="exc-tick" opacity="1" transform="translate(0, 28.0)"><line x2="-6"></line><text x="-9" dy="0.32em">9000</text></g><g class="exc-tick" opacity="1" transform="translate(0, 0.5)"><line x2="-6"></line><text x="-9" dy="0.32em">10000</text></g></g><g><rect x="1.0" y="275.0" width="208.0" height="0.0" style="fill:#1f77b4;"><title >0</title></rect><rect x="211.0" y="275.0" width="208.0" height="0.0" style="fill:#1f77b4;"><title >0</title></rect></g></g><g transform="translate(500, 65)"><g class="exc-legend"><rect x="0" y="0" width="18" height="18" style="fill:#1f77b4;"></rect><text x="23" y="9" dominant-baseline="central" text-anchor="start">mails</text></g></g></svg>